PathFileType	4	(X/Y/Z)	C:/Users/beibeiliu/ov580/test_trc/User1\sequence.25_training_dense_left.trc
DataRate	CameraRate	NumFrames	NumMarkers	Units	OrigDataRate	OrigDataStartFrame	OrigNumFrames
120	120	7	19	mm	120	212	242
Frame#	Time	ThumbCMC			ThumbMCP			ThumbIP			ThumbTip			IndexMCP			IndexPIP			IndexTip			MiddleMCP			MiddlePIP			MiddleTip			RingMCP			RingPIP			RingTip			PinkyMCP			PinkyPIP			PinkyTip			BackHand1			BackHand2			BackHand3	
		X0	Y0	Z0	X1	Y1	Z1	X2	Y2	Z2	X3	Y3	Z3	X4	Y4	Z4	X5	Y5	Z5	X6	Y6	Z6	X7	Y7	Z7	X8	Y8	Z8	X9	Y9	Z9	X10	Y10	Z10	X11	Y11	Z11	X12	Y12	Z12	X13	Y13	Z13	X14	Y14	Z14	X15	Y15	Z15	X16	Y16	Z16	X17	Y17	Z17	X18	Y18	Z18	
211	1.75833	-176.865	7.19843	27.1479	-158.874	20.2395	-4.45839	-141.465	17.3128	-29.7253	-119.102	9.03458	-39.2135	-162.332	-23.998	-53.3804	-151.35	-28.9516	-71.297	-139.169	-41.6787	-92.7937	-128.243	-21.9741	-46.9488	-110.412	3.07312	-57.4187	-92.3676	36.3919	-41.4994	-106.917	-15.1736	-26.6482	-99.8454	15.6852	-14.7524	-112.995	25.1075	15.4694	-97.0097	-24.9939	-10.7732	-94.446	0.785883	-2.86453	-115.053	13.9515	17.8893	-144.6	-53.3507	14.0571	-154.693	-51.8218	47.3955	-181.913	-32.7311	19.6266	
212	1.76667	-181.03	11.8286	25.7763	-163.594	27.5143	-4.59263	-145.17	17.2031	-30.6098	-122.367	8.38175	-41.0924	-165.779	-24.2247	-51.2186	-158.265	-29.5876	-70.8693	-147.942	-40.7938	-92.2298	-137.902	-19.418	-48.1864	-112.661	3.93467	-58.9072	-100.129	37.2342	-46.7606	-113.569	-16.0177	-29.1089	-104.081	17.2225	-17.9284	-111.523	27.2243	8.32604	-103.189	-27.2399	-11.4586	-96.5031	2.7624	-6.63072	-111.761	14.7437	17.6043	-144.99	-50.5723	16.1465	-155.139	-50.2135	50.949	-176.605	-31.9396	22.0023	
213	1.775	-177.793	10.6111	30.6213	-164.759	28.0217	-5.44004	-149.626	15.9004	-29.9315	-125.136	4.20773	-46.58	-169.23	-27.1997	-50.0357	-164.69	-32.1522	-70.0553	-152.617	-43.9724	-87.3687	-138.153	-18.9864	-51.8251	-121.27	2.49059	-62.9548	-103.394	33.1489	-50.0077	-116.491	-17.0499	-30.8558	-106.22	16.3033	-23.7579	-113.503	29.9798	2.46362	-105.319	-24.4606	-15.0054	-101.339	4.47739	-10.6805	-116.143	18.4926	15.1936	-145.595	-49.5585	16.1101	-152.689	-46.5094	50.9841	-180.73	-28.0318	26.4414	
214	1.78333	-178.599	13.4322	30.3683	-165.831	23.8346	-6.71426	-152.774	14.1549	-31.7709	-132.018	4.17056	-44.7269	-176.47	-28.2304	-47.0131	-168.834	-35.6053	-66.5338	-162.312	-47.8108	-89.8514	-146.609	-23.17	-49.3054	-128.574	4.72462	-66.8006	-112.39	34.8731	-54.9019	-120.033	-18.6216	-31.9104	-107.915	12.349	-28.9473	-113.735	29.2303	1.2143	-107.507	-26.1863	-17.2843	-102.103	4.60668	-13.6151	-117.079	19.4034	12.1181	-150.223	-48.5188	15.3896	-154.414	-42.6526	51.6354	-180.791	-29.5879	28.2989	
215	1.79167	-176.325	14.5528	29.0748	-166.598	24.815	-6.13208	-155.265	14.0169	-32.3707	-136.847	3.39215	-46.7253	-180.662	-27.5632	-39.3564	-176.564	-37.4749	-61.6501	-171.034	-50.5185	-82.6221	-148.666	-25.5118	-50.458	-134.73	-4.03711	-67.5477	-114.947	31.3605	-60.4393	-124.985	-17.2286	-36.3012	-109.844	9.70645	-31.4664	-115.494	29.4732	-6.46574	-108.652	-27.3498	-19.7612	-104.656	0.515272	-19.5578	-118.858	19.7095	5.87598	-149.929	-46.4175	18.2216	-156.966	-40.207	55.1334	-182.694	-26.7464	28.2455	
216	1.8	-175.376	18.2776	33.3796	-166.96	23.4264	-7.83008	-158.401	14.343	-32.3836	-140.943	-1.29445	-49.147	-186.562	-29.3864	-37.5477	-183.774	-42.1136	-61.4226	-181.738	-55.1231	-78.741	-158.32	-27.2066	-47.787	-139.673	-5.82483	-71.5292	-117.317	24.0673	-66.5041	-130.842	-22.9581	-33.9362	-114.129	8.5218	-34.3218	-118.115	28.8153	-8.17731	-115.25	-29.0634	-21.7778	-107.674	-2.16433	-23.2556	-121.356	18.5418	0.692453	-155.427	-44.5969	19.5492	-152.423	-38.9328	54.3688	-181.402	-23.6781	32.023	
217	1.80833	-177.888	20.3083	28.2179	-167.66	23.9235	-8.92048	-158.989	14.1512	-31.5988	-143.928	-1.76411	-48.8475	-190.487	-30.4236	-36.8647	-188.054	-41.5188	-54.7758	-188.721	-56.9209	-76.8024	-158.454	-28.904	-50.7697	-144.069	-10.7231	-71.3448	-121.759	18.7604	-73.8314	-131.527	-21.9917	-36.0832	-115.455	5.25089	-36.6838	-120.163	28.7404	-9.73282	-117.034	-31.9951	-19.2822	-106.118	-4.0261	-24.2667	-121.908	15.692	0.462699	-156.225	-44.304	21.1185	-152.201	-35.1697	56.8458	-181.235	-22.2249	33.7789	
